<svg version="1.1" xmlns="http://www.w3.org/2000/svg" viewBox="-2784.2 -1107.2 9578.194375170604 2752.1"><desc>Created with Snap</desc><defs></defs><g><rect x="-2784.2" y="-1107.2" width="9578.194375170604" height="2752.1" fill="#ff9255" style=""></rect><g transform="matrix(46.6503,0,0,46.6503,2302.7368,-2063.6631)"><path d="M88.041,57.896l-6.213-20.112c-1.161-6.089-6.51-10.691-12.936-10.696c-9.082,0.002-9.009,4.834-11.402,4.834H42.509  c-2.392-0.002-2.316-4.832-11.4-4.832c-6.426-0.001-11.772,4.604-12.937,10.692L11.96,57.894c-3.402,11.05-0.714,13.25,0.702,14.126  c2.488,1.536,6.075,1.572,11.271-3.848c0,0,9.956-10.828,9.957-10.834c5.055,1.246,7.763-2.635,8.619-5.207l14.98-0.002  c0.857,2.574,3.565,6.455,8.619,5.211c0,0.004,9.958,10.834,9.958,10.834c5.196,5.42,8.784,5.381,11.271,3.844  C88.756,71.144,91.44,68.942,88.041,57.896z M36.675,43.91H33.13l0.001,3.547c0,1.217-0.986,2.204-2.203,2.204  s-2.203-0.986-2.203-2.203l-0.001-3.548h-3.546c-1.217,0-2.203-0.986-2.203-2.203s0.986-2.203,2.203-2.203h3.546l-0.001-3.545  c0-1.217,0.986-2.204,2.203-2.204s2.203,0.986,2.203,2.203l0.001,3.546h3.545c1.217,0,2.203,0.986,2.203,2.203  S37.892,43.91,36.675,43.91z M68.221,34.817h0.007c1.214,0,2.199,0.982,2.203,2.196l0.003,0.953c0.004,1.217-0.979,2.206-2.196,2.21  H68.23c-1.214,0-2.199-0.982-2.203-2.196l-0.003-0.953C66.021,35.81,67.004,34.821,68.221,34.817z M63.543,43.91  c-1.217,0-2.203-0.986-2.203-2.203s0.986-2.203,2.203-2.203h0.954c1.217,0,2.203,0.986,2.203,2.203s-0.986,2.203-2.203,2.203H63.543  z M70.432,46.397c-0.003,1.215-0.988,2.199-2.203,2.199h-0.005c-1.217-0.002-2.201-0.991-2.198-2.208l0.002-0.951  c0.003-1.215,0.988-2.199,2.203-2.199h0.005c1.217,0.002,2.201,0.991,2.198,2.208L70.432,46.397z M72.916,43.913H72.91l-0.951-0.002  c-1.217-0.003-2.2-0.992-2.197-2.209c0.003-1.215,0.989-2.197,2.203-2.197h0.006l0.951,0.002c1.217,0.003,2.2,0.992,2.197,2.209  C75.116,42.93,74.13,43.913,72.916,43.913z" fill="#292929" style=""></path><desc>Created with Snap</desc><defs></defs></g><g><g transform="matrix(0.5,0,0,-0.5,0,0)"><path d="M344 530Q331 426 331 364Q331 303 346 251Q361 199 389 161Q449 80 541 80Q717 80 717 274Q717 430 536 605L432 706Q295 838 245 918Q146 1076 146 1232Q146 1359 228 1445Q327 1550 513 1550Q586 1550 623 1543Q692 1530 715 1530Q773 1530 805 1566Q817 1579 831 1600Q904 1559 904 1299Q904 1133 871 1054Q860 1027 846 1020Q830 1171 748 1290Q652 1430 526 1430Q418 1430 393 1331Q386 1303 386 1261Q386 1220 411 1167Q436 1114 476 1061Q517 1009 570 956Q730 792 782 734Q835 676 876 614Q966 475 966 345Q966 188 844 85Q718 -20 520 -20Q356 -20 238 62Q108 152 108 300Q147 439 278 504Q313 522 344 530ZM1960 964L1960 916L1945 469Q1945 196 1993 94Q2010 57 2053 0L1775 0Q1752 68 1745 172Q1629 -20 1446 -20Q1320 -20 1253 74Q1187 165 1187 324L1187 459Q1187 504 1187 551L1185 642Q1184 729 1179 777Q1175 826 1169 858Q1164 891 1156 916Q1148 942 1138 964L1116 1010L1405 1010Q1406 994 1406 980L1406 951Q1406 951 1389 449Q1389 302 1408 249Q1427 196 1453 173Q1480 150 1524 150Q1643 150 1717 280Q1737 317 1750 355Q1752 411 1752 482Q1752 847 1698 964L1676 1010L1961 1010Q1960 985 1960 964ZM2474 946Q2586 1030 2754 1030Q2992 1030 3065 833Q3089 768 3089 669Q3089 571 3066 477Q3044 384 3004 309Q2964 234 2909 177Q2855 120 2791 82Q2663 5 2519 1Q2521 -53 2525 -105L2535 -211Q2544 -319 2597 -394L2631 -440L2266 -440Q2294 -344 2298 -248Q2303 -152 2305 -84Q2308 -15 2309 58Q2313 228 2313 356Q2313 768 2287 860Q2271 917 2246 951L2204 1010L2473 1010Q2467 990 2474 946ZM2839 643Q2839 930 2694 930Q2622 930 2574 866Q2522 797 2522 677L2515 203L2515 148Q2515 121 2516 93Q2661 115 2751 267Q2839 417 2839 643ZM4009 340Q4045 316 4045 256Q4045 197 4029 152Q4013 107 3973 68Q3883 -20 3699 -20Q3485 -20 3373 138Q3274 279 3274 519Q3274 761 3408 899Q3535 1030 3752 1030Q3903 1030 3988 942Q4055 872 4055 780Q4055 689 4019 615Q3984 542 3915 489Q3773 379 3518 373Q3539 172 3644 104Q3682 80 3745 80Q3808 80 3879 146Q3950 212 4009 340ZM3512 499L3512 468Q3828 489 3828 774Q3828 881 3764 918Q3742 930 3706 930Q3670 930 3633 908Q3597 886 3570 836Q3512 727 3512 499ZM4584 0L4289 0Q4335 158 4335 543Q4335 817 4291 917Q4273 958 4227 1010L4582 1010Q4564 947 4553 837Q4647 955 4815 1004Q4887 1025 4920 1070Q4953 991 4953 934Q4953 877 4947 828Q4941 780 4929 734Q4903 635 4860 580Q4823 775 4745 808Q4655 847 4569 702Q4551 672 4539 638Q4538 615 4538 591Q4538 567 4538 543Q4538 158 4584 0Z" fill="#292929" style=""></path></g></g><g transform="matrix(1,0,0,1,-2523.5,1327.2)"><g transform="matrix(0.5,0,0,-0.5,0,0)"><path d="M775 489L774 619Q774 732 752 769Q730 807 706 824Q682 842 647 860L1086 860Q1023 802 1006 712Q990 626 990 446Q990 96 1032 -20Q1018 -21 1004 -21L977 -21Q537 -21 310 262Q93 533 93 1031Q93 1277 238 1408Q372 1530 597 1530L773 1528Q912 1528 967 1562Q990 1577 1006 1600Q1031 1552 1031 1468Q1031 1384 1026 1332Q1021 1281 1011 1232Q990 1128 946 1070Q908 1270 851 1346Q787 1430 651 1430Q479 1430 408 1292Q357 1191 357 986Q357 705 444 447Q505 266 596 190Q643 150 693 150Q744 150 758 179Q772 208 773 278Q775 416 775 489ZM1991 534L1988 342Q1988 163 2021 98Q2041 59 2068 38L2115 0L1825 0L1794 116Q1681 -20 1472 -20Q1353 -20 1280 60Q1216 132 1216 230Q1216 328 1262 401Q1309 474 1385 522Q1535 615 1762 619L1762 630Q1762 873 1687 915Q1660 930 1617 930Q1575 930 1533 902Q1491 874 1457 830Q1389 741 1360 620Q1271 673 1271 823Q1271 884 1287 960Q1325 960 1359 971L1436 995Q1549 1030 1657 1030Q1765 1030 1829 998Q1894 966 1930 903Q1991 796 1991 534ZM1432 210Q1432 148 1460 114Q1489 80 1532 80Q1575 80 1615 102Q1655 125 1687 164Q1762 253 1762 373L1762 521Q1622 508 1531 428Q1432 342 1432 210ZM2586 0L2299 0Q2345 158 2345 543Q2345 817 2297 917Q2285 942 2270 964L2237 1010L2584 1010Q2569 951 2564 916L2557 856Q2673 1030 2852 1030Q3032 1030 3085 835Q3164 970 3294 1014Q3340 1030 3397 1030Q3455 1030 3501 1005Q3548 981 3580 936Q3643 845 3643 687L3643 580Q3643 274 3651 196Q3660 119 3664 94Q3670 50 3684 0L3389 0Q3433 151 3433 543Q3433 702 3417 756Q3401 811 3375 835Q3350 860 3306 860Q3177 860 3101 708L3101 580Q3101 274 3109 196Q3118 119 3122 94Q3128 50 3142 0L2847 0Q2892 154 2892 543Q2892 706 2876 758Q2860 811 2835 835Q2810 860 2766 860Q2723 860 2688 843Q2653 826 2625 798Q2572 746 2542 664Q2540 635 2540 604L2540 543Q2540 158 2586 0ZM3064 602L3068 620L3064 602ZM4627 340Q4663 316 4663 256Q4663 197 4647 152Q4631 107 4591 68Q4501 -20 4317 -20Q4103 -20 3991 138Q3892 279 3892 519Q3892 761 4026 899Q4153 1030 4370 1030Q4521 1030 4606 942Q4673 872 4673 780Q4673 689 4637 615Q4602 542 4533 489Q4391 379 4136 373Q4157 172 4262 104Q4300 80 4363 80Q4426 80 4497 146Q4568 212 4627 340ZM4130 499L4130 468Q4446 489 4446 774Q4446 881 4382 918Q4360 930 4324 930Q4288 930 4251 908Q4215 886 4188 836Q4130 727 4130 499ZM5792 530Q5779 426 5779 364Q5779 303 5794 251Q5809 199 5837 161Q5897 80 5989 80Q6165 80 6165 274Q6165 430 5984 605L5880 706Q5743 838 5693 918Q5594 1076 5594 1232Q5594 1359 5676 1445Q5775 1550 5961 1550Q6034 1550 6071 1543Q6140 1530 6163 1530Q6221 1530 6253 1566Q6265 1579 6279 1600Q6352 1559 6352 1299Q6352 1133 6319 1054Q6308 1027 6294 1020Q6278 1171 6196 1290Q6100 1430 5974 1430Q5866 1430 5841 1331Q5834 1303 5834 1261Q5834 1220 5859 1167Q5884 1114 5924 1061Q5965 1009 6018 956Q6178 792 6230 734Q6283 676 6324 614Q6414 475 6414 345Q6414 188 6292 85Q6166 -20 5968 -20Q5804 -20 5686 62Q5556 152 5556 300Q5595 439 5726 504Q5761 522 5792 530ZM6883 1410Q6862 1333 6862 1225Q6862 1118 6866 1088Q6871 1058 6881 1040Q6900 1010 6955 1010L7223 1010Q7223 954 7196 924Q7147 870 7076 870Q7041 870 7014 880Q6965 900 6938 900Q6911 900 6894 889Q6877 879 6867 859Q6849 823 6849 702Q6849 581 6856 454Q6864 327 6894 241Q6924 156 6985 113Q7046 70 7153 70Q7153 39 7111 -4Q7100 -16 7092 -20Q6915 -20 6827 22Q6726 72 6683 200Q6640 330 6640 585Q6640 808 6628 848Q6616 889 6606 902Q6594 917 6548 939Q6610 986 6671 1114L6721 1219Q6774 1339 6811 1374Q6849 1410 6883 1410ZM7770 930Q7680 930 7640 840Q7601 750 7601 537Q7601 80 7770 80Q7860 80 7899 202Q7939 324 7939 537Q7939 750 7899 840Q7860 930 7770 930ZM7349 575Q7349 1030 7770 1030Q8191 1030 8191 575Q8191 299 8075 138Q7962 -20 7770 -20Q7578 -20 7465 138Q7349 299 7349 575ZM8751 0L8456 0Q8502 158 8502 543Q8502 817 8458 917Q8440 958 8394 1010L8749 1010Q8731 947 8720 837Q8814 955 8982 1004Q9054 1025 9087 1070Q9120 991 9120 934Q9120 877 9114 828Q9108 780 9096 734Q9070 635 9027 580Q8990 775 8912 808Q8822 847 8736 702Q8718 672 8706 638Q8705 615 8705 591Q8705 567 8705 543Q8705 158 8751 0ZM9954 340Q9990 316 9990 256Q9990 197 9974 152Q9958 107 9918 68Q9828 -20 9644 -20Q9430 -20 9318 138Q9219 279 9219 519Q9219 761 9353 899Q9480 1030 9697 1030Q9848 1030 9933 942Q10000 872 10000 780Q10000 689 9964 615Q9929 542 9860 489Q9718 379 9463 373Q9484 172 9589 104Q9627 80 9690 80Q9753 80 9824 146Q9895 212 9954 340ZM9457 499L9457 468Q9773 489 9773 774Q9773 881 9709 918Q9687 930 9651 930Q9615 930 9578 908Q9542 886 9515 836Q9457 727 9457 499Z" fill="#292929" style=""></path></g></g></g></svg>